<?xml version="1.0" encoding="utf-8"?>
<!-- Generator: Adobe Illustrator 21.1.0, SVG Export Plug-In . SVG Version: 6.00 Build 0)  -->
<svg version="1.1" id="Lager_1" xmlns="http://www.w3.org/2000/svg" xmlns:xlink="http://www.w3.org/1999/xlink" x="0px" y="0px"
	 viewBox="0 0 206.9 70.5" style="enable-background:new 0 0 206.9 70.5;" xml:space="preserve">
<style type="text/css">
	.st0{fill:#FFFFFF;}
</style>
<g>
	<path class="st0" d="M0,11.1h14.7l7.6,22.1L30,11.1h14.5l-16,39.7H16L0,11.1z"/>
	<path class="st0" d="M38.3,35.3v-0.1c0-8.7,7.2-16.1,17.3-16.1c10.1,0,17.2,7.3,17.2,16v0.1c0,8.7-7.2,16.1-17.3,16.1
		C45.4,51.2,38.3,43.9,38.3,35.3z M60.6,35.3v-0.1c0-3-2.2-5.5-5.1-5.5c-2.9,0-4.9,2.4-4.9,5.3v0.1c0,3,2.2,5.5,5.1,5.5
		C58.5,40.6,60.6,38.2,60.6,35.3z"/>
	<path class="st0" d="M77.2,40.2V29.6h-3.6v-9.8h3.6v-7.7H90v7.7h7.1v9.8H90v7.8c0,2.3,1.1,3.1,3.1,3.1c1.2,0,2.5-0.3,3.9-1v9.8
		c-2,1.1-5.1,1.7-8.2,1.7C81.3,51.2,77.2,47.7,77.2,40.2z"/>
	<path class="st0" d="M98.7,35.3v-0.1c0-9.2,6.6-16.1,15.8-16.1c10.9,0,16,7.6,16,16.9c0,0.7,0,1.5-0.1,2.1h-19.7
		c0.9,2.7,3,4.1,5.8,4.1c2.3,0,4.2-1.1,6.2-3.1l6.9,5.5c-3,3.9-7.4,6.7-14,6.7C105.5,51.2,98.7,44.9,98.7,35.3z M118.8,32.5
		c-0.3-2.9-2-4.6-4.3-4.6c-2.1,0-3.7,1.8-4,4.6H118.8z"/>
</g>
<path class="st0" d="M171.6,0c-19.5,0-35.2,15.8-35.2,35.2c0,4.9,1,9.6,2.8,13.9l-2.6,12.2l12,0.6c6.2,5.3,14.2,8.6,23,8.6
	c19.5,0,35.2-15.8,35.2-35.2C206.9,15.8,191.1,0,171.6,0z M161.6,52.7h-11.1V19.5h11.1V52.7z M194.9,28.9h-9.8v23.8H174V28.9h-9.8
	v-9.4h30.7V28.9z"/>
</svg>
