<?xml version="1.0" encoding="UTF-8" standalone="no"?>
<svg
   xmlns:dc="http://purl.org/dc/elements/1.1/"
   xmlns:cc="http://creativecommons.org/ns#"
   xmlns:rdf="http://www.w3.org/1999/02/22-rdf-syntax-ns#"
   xmlns:svg="http://www.w3.org/2000/svg"
   xmlns="http://www.w3.org/2000/svg"
   xmlns:sodipodi="http://sodipodi.sourceforge.net/DTD/sodipodi-0.dtd"
   xmlns:inkscape="http://www.inkscape.org/namespaces/inkscape"
   height="48"
   width="48"
   xml:space="preserve"
   viewBox="0 0 48.000001 48"
   y="0px"
   x="0px"
   id="Lager_1"
   version="1.1"
   sodipodi:docname="voteit-logo-manifest.svg"
   inkscape:version="0.92.3 (2405546, 2018-03-11)"><sodipodi:namedview
   pagecolor="#ffffff"
   bordercolor="#666666"
   borderopacity="1"
   objecttolerance="10"
   gridtolerance="10"
   guidetolerance="10"
   inkscape:pageopacity="0"
   inkscape:pageshadow="2"
   inkscape:window-width="1920"
   inkscape:window-height="1136"
   id="namedview14"
   showgrid="false"
   inkscape:zoom="4.9166667"
   inkscape:cx="24"
   inkscape:cy="24"
   inkscape:window-x="0"
   inkscape:window-y="27"
   inkscape:window-maximized="1"
   inkscape:current-layer="Lager_1" /><metadata
   id="metadata1460"><rdf:RDF><cc:Work
       rdf:about=""><dc:format>image/svg+xml</dc:format><dc:type
         rdf:resource="http://purl.org/dc/dcmitype/StillImage" /><dc:title /></cc:Work></rdf:RDF></metadata><defs
   id="defs1458" />
<style
   id="style1441"
   type="text/css">
	.st0{fill:#FFFFFF;}
</style>
<rect
   ry="0"
   y="5.100685e-15"
   x="-9.9920072e-16"
   height="48"
   width="48"
   id="rect1462"
   style="color:#000000;clip-rule:nonzero;display:inline;overflow:visible;visibility:visible;opacity:1;isolation:auto;mix-blend-mode:normal;color-interpolation:sRGB;color-interpolation-filters:linearRGB;solid-color:#000000;solid-opacity:1;fill:#0a243d;fill-opacity:1;fill-rule:nonzero;stroke:none;stroke-width:0.53305101;stroke-linecap:butt;stroke-linejoin:miter;stroke-miterlimit:4;stroke-dasharray:none;stroke-dashoffset:0;stroke-opacity:1;color-rendering:auto;image-rendering:auto;shape-rendering:auto;text-rendering:auto;enable-background:accumulate" />
<g
   transform="translate(1.7037926,1.1392005)"
   id="g1470"><g
     id="g1451"
     transform="matrix(0.21563014,0,0,0.21563014,0,15.259837)">
	<path
   class="st0"
   d="M 0,11.1 H 14.7 L 22.3,33.2 30,11.1 h 14.5 l -16,39.7 H 16 Z"
   id="path1443"
   style="fill:#ffffff" />
	<path
   class="st0"
   d="m 38.3,35.3 v -0.1 c 0,-8.7 7.2,-16.1 17.3,-16.1 10.1,0 17.2,7.3 17.2,16 v 0.1 c 0,8.7 -7.2,16.1 -17.3,16.1 -10.1,-0.1 -17.2,-7.4 -17.2,-16 z m 22.3,0 v -0.1 c 0,-3 -2.2,-5.5 -5.1,-5.5 -2.9,0 -4.9,2.4 -4.9,5.3 v 0.1 c 0,3 2.2,5.5 5.1,5.5 2.8,0 4.9,-2.4 4.9,-5.3 z"
   id="path1445"
   style="fill:#ffffff" />
	<path
   class="st0"
   d="M 77.2,40.2 V 29.6 h -3.6 v -9.8 h 3.6 V 12.1 H 90 v 7.7 h 7.1 v 9.8 H 90 v 7.8 c 0,2.3 1.1,3.1 3.1,3.1 1.2,0 2.5,-0.3 3.9,-1 v 9.8 C 95,50.4 91.9,51 88.8,51 81.3,51.2 77.2,47.7 77.2,40.2 Z"
   id="path1447"
   style="fill:#ffffff" />
	<path
   class="st0"
   d="m 98.7,35.3 v -0.1 c 0,-9.2 6.6,-16.1 15.8,-16.1 10.9,0 16,7.6 16,16.9 0,0.7 0,1.5 -0.1,2.1 h -19.7 c 0.9,2.7 3,4.1 5.8,4.1 2.3,0 4.2,-1.1 6.2,-3.1 l 6.9,5.5 c -3,3.9 -7.4,6.7 -14,6.7 -10.1,-0.1 -16.9,-6.4 -16.9,-16 z m 20.1,-2.8 c -0.3,-2.9 -2,-4.6 -4.3,-4.6 -2.1,0 -3.7,1.8 -4,4.6 z"
   id="path1449"
   style="fill:#ffffff" />
</g><path
     class="st0"
     d="m 37.002133,15.259837 c -4.204788,0 -7.590181,3.406956 -7.590181,7.590181 0,1.056588 0.21563,2.07005 0.603764,2.997259 l -0.560639,2.630688 2.587563,0.129378 c 1.336906,1.142839 3.061947,1.854419 4.959493,1.854419 4.204788,0 7.59018,-3.406956 7.59018,-7.59018 0.02157,-4.204789 -3.385392,-7.611745 -7.59018,-7.611745 z M 34.84583,26.623546 h -2.393493 v -7.158921 h 2.393493 z m 7.180485,-5.131998 H 39.91314 v 5.131998 H 37.519645 V 21.491548 H 35.40647 v -2.026923 h 6.619845 z"
     id="path1453"
     style="fill:#ffffff;stroke-width:0.21563014" /></g>
</svg>